<svg xmlns="http://www.w3.org/2000/svg" viewBox="0 0 1240 960" role="img" aria-labelledby="title desc"><title id="title">전체 구성 · 기존 TS 로컬 운영환경</title><desc id="desc">N0 → N1：진입。N1 → N2：요청。N2 → N3：검색·생성。N3 → N4：저장。N4 → N5：검증。N5 → N6：양식 매핑。N6 → N7：초안。N7 → N8：검토 결과</desc><defs><marker id="arrow" viewBox="0 0 10 10" refX="9" refY="5" markerWidth="8" markerHeight="8" orient="auto-start-reverse"><path d="M 0 0 L 10 5 L 0 10 z" fill="#6d8495"/></marker></defs><style>text{font-family:'Malgun Gothic','Segoe UI',sans-serif}.title{font-size:22px;font-weight:700}.detail{font-size:18px;fill:#334d60}.edge{font-size:16px;fill:#435d70;paint-order:stroke;stroke:#fff;stroke-width:5;stroke-linejoin:round}</style><rect width="100%" height="100%" fill="#fff"/><text x="40" y="52" font-size="28" font-weight="700" fill="#172e42">전체 구성 · 기존 TS 로컬 운영환경</text><text x="40" y="88" font-size="18" fill="#587082">P23X-architecture · 제안 설계 · 운영 시스템 실측 전</text><polyline points="340,227.5 470,227.5" fill="none" stroke="#6d8495" stroke-width="2.3" marker-end="url(#arrow)"/><text x="405" y="214.5" text-anchor="middle" class="edge"><tspan x="405" dy="0">진입</tspan></text><polyline points="770,227.5 900,227.5" fill="none" stroke="#6d8495" stroke-width="2.3" marker-end="url(#arrow)"/><text x="835" y="214.5" text-anchor="middle" class="edge"><tspan x="835" dy="0">요청</tspan></text><polyline points="1050,310 1050,390" fill="none" stroke="#6d8495" stroke-width="2.3" marker-end="url(#arrow)"/><text x="1065" y="350" text-anchor="start" class="edge"><tspan x="1065" dy="0">검색·생성</tspan></text><polyline points="900,472.5 770,472.5" fill="none" stroke="#6d8495" stroke-width="2.3" marker-end="url(#arrow)"/><text x="835" y="459.5" text-anchor="middle" class="edge"><tspan x="835" dy="0">저장</tspan></text><polyline points="470,472.5 340,472.5" fill="none" stroke="#6d8495" stroke-width="2.3" marker-end="url(#arrow)"/><text x="405" y="459.5" text-anchor="middle" class="edge"><tspan x="405" dy="0">검증</tspan></text><polyline points="190,555 190,635" fill="none" stroke="#6d8495" stroke-width="2.3" marker-end="url(#arrow)"/><text x="205" y="595" text-anchor="start" class="edge"><tspan x="205" dy="0">양식 매핑</tspan></text><polyline points="340,717.5 470,717.5" fill="none" stroke="#6d8495" stroke-width="2.3" marker-end="url(#arrow)"/><text x="405" y="704.5" text-anchor="middle" class="edge"><tspan x="405" dy="0">초안</tspan></text><polyline points="770,717.5 900,717.5" fill="none" stroke="#6d8495" stroke-width="2.3" marker-end="url(#arrow)"/><text x="835" y="704.5" text-anchor="middle" class="edge"><tspan x="835" dy="0">검토 결과</tspan></text><g data-node="N0"><rect x="40" y="145" width="300" height="165" rx="16" fill="#edf1f5" stroke="#61768b" stroke-width="1.8"/><text x="58" y="176" class="title" fill="#61768b"><tspan x="58" dy="0">업무·기획·예산·계약</tspan></text><text x="58" y="212" class="detail"><tspan x="58" dy="0">역할별 자료 접근</tspan></text></g><g data-node="N1"><rect x="470" y="145" width="300" height="165" rx="16" fill="#e7f5f2" stroke="#087f72" stroke-width="1.8"/><text x="488" y="176" class="title" fill="#087f72"><tspan x="488" dy="0">검토 작업대</tspan></text><text x="488" y="212" class="detail"><tspan x="488" dy="0">자료·문제·예산·문서</tspan></text></g><g data-node="N2"><rect x="900" y="145" width="300" height="165" rx="16" fill="#e7f5f2" stroke="#087f72" stroke-width="1.8"/><text x="918" y="176" class="title" fill="#087f72"><tspan x="918" dy="0">NOA 실행 구성</tspan></text><text x="918" y="212" class="detail"><tspan x="918" dy="0">허용 도구·작업 상태</tspan></text></g><g data-node="N3"><rect x="900" y="390" width="300" height="165" rx="16" fill="#e7f5f2" stroke="#087f72" stroke-width="1.8"/><text x="918" y="421" class="title" fill="#087f72"><tspan x="918" dy="0">근거 검색·로컬 LLM</tspan></text><text x="918" y="457" class="detail"><tspan x="918" dy="0">사실·가설·초안 생성</tspan></text></g><g data-node="N4"><rect x="470" y="390" width="300" height="165" rx="16" fill="#edf2fe" stroke="#4166a0" stroke-width="1.8"/><text x="488" y="421" class="title" fill="#4166a0"><tspan x="488" dy="0">사업·근거 원장</tspan></text><text x="488" y="457" class="detail"><tspan x="488" dy="0">권한·ID·버전·참조</tspan></text></g><g data-node="N5"><rect x="40" y="390" width="300" height="165" rx="16" fill="#e7f5f2" stroke="#087f72" stroke-width="1.8"/><text x="58" y="421" class="title" fill="#087f72"><tspan x="58" dy="0">규칙·산술 검증</tspan></text><text x="58" y="457" class="detail"><tspan x="58" dy="0">단위·필수값·변경 영향</tspan></text></g><g data-node="N6"><rect x="40" y="635" width="300" height="165" rx="16" fill="#e7f5f2" stroke="#087f72" stroke-width="1.8"/><text x="58" y="666" class="title" fill="#087f72"><tspan x="58" dy="0">문서 출력 어댑터</tspan></text><text x="58" y="702" class="detail"><tspan x="58" dy="0">HTML/MD·고정 HWPX</tspan></text></g><g data-node="N7"><rect x="470" y="635" width="300" height="165" rx="16" fill="#fff1d4" stroke="#946310" stroke-width="1.8"/><text x="488" y="666" class="title" fill="#946310"><tspan x="488" dy="0">담당자 검토</tspan></text><text x="488" y="702" class="detail"><tspan x="488" dy="0">실제 렌더·공개 적합성</tspan></text></g><g data-node="N8"><rect x="900" y="635" width="300" height="165" rx="16" fill="#edf2fe" stroke="#4166a0" stroke-width="1.8"/><text x="918" y="666" class="title" fill="#4166a0"><tspan x="918" dy="0">인계 파일·감사기록</tspan></text><text x="918" y="702" class="detail"><tspan x="918" dy="0">검토 이력·근거 참조</tspan></text></g><text x="40" y="875" font-size="17" fill="#425b6c">화살표는 대표 처리 흐름. 권한·버전 검사는 전 단계에 적용</text><text x="40" y="902" font-size="17" fill="#425b6c">HWPX·NOA 연동과 서버 성능은 실증 전 / 새 장비 구매 수량을 뜻하지 않음</text></svg>