<svg xmlns="http://www.w3.org/2000/svg" viewBox="0 0 1060 520" role="img" aria-labelledby="title"><title id="title">교통안전처 · 구성요소와 책임 경계</title><defs><marker id="arrow" markerWidth="9" markerHeight="9" refX="7" refY="3" orient="auto"><path d="M0,0L7,3L0,6" fill="#416d83"/></marker></defs><rect width="1060" height="520" fill="#f1f6f8"/><text x="25" y="36" font-family="Malgun Gothic,sans-serif" font-size="22" fill="#17394d">교통안전처 · 구성요소와 책임 경계</text><polyline points="325,125 377,125" fill="none" stroke="#416d83" stroke-width="2" marker-end="url(#arrow)"/><text x="331" y="113" font-family="Malgun Gothic,sans-serif" font-size="13" fill="#234e62">목표</text><polyline points="680,125 732,125" fill="none" stroke="#416d83" stroke-width="2" marker-end="url(#arrow)"/><text x="686" y="113" font-family="Malgun Gothic,sans-serif" font-size="13" fill="#234e62">과업</text><polyline points="175,174 175,297" fill="none" stroke="#416d83" stroke-width="2" marker-end="url(#arrow)"/><text x="186" y="235" font-family="Malgun Gothic,sans-serif" font-size="13" fill="#234e62">근거/조회</text><polyline points="530,174 530,297" fill="none" stroke="#416d83" stroke-width="2" marker-end="url(#arrow)"/><text x="544" y="235" font-family="Malgun Gothic,sans-serif" font-size="13" fill="#234e62">유효 승인</text><polyline points="885,174 885,242 680,242 680,300" fill="none" stroke="#416d83" stroke-width="2" marker-end="url(#arrow)"/><text x="722" y="230" font-family="Malgun Gothic,sans-serif" font-size="13" fill="#234e62">도구 계약</text><polyline points="680,347 732,347" fill="none" stroke="#416d83" stroke-width="2" marker-end="url(#arrow)"/><text x="686" y="335" font-family="Malgun Gothic,sans-serif" font-size="13" fill="#234e62">인계</text><polyline points="380,347 328,347" fill="none" stroke="#416d83" stroke-width="2" marker-end="url(#arrow)"/><text x="334" y="335" font-family="Malgun Gothic,sans-serif" font-size="13" fill="#234e62">근거</text><polyline points="885,394 885,461 530,461 530,398" fill="none" stroke="#416d83" stroke-width="2" marker-end="url(#arrow)"/><text x="591" y="450" font-family="Malgun Gothic,sans-serif" font-size="13" fill="#234e62">공식 결과 재조회·대사</text><rect x="25" y="80" width="300" height="94" rx="10" fill="white" stroke="#9bb7c7"/><text x="39" y="110" font-family="Malgun Gothic,sans-serif" font-size="18" fill="#17394d">처별 워크스페이스</text><text x="39" y="136" font-family="Malgun Gothic,sans-serif" font-size="14" fill="#466577">미흡·원인·조치·해소 증거</text><text x="39" y="156" font-family="Malgun Gothic,sans-serif" font-size="14" fill="#466577"></text><rect x="380" y="80" width="300" height="94" rx="10" fill="white" stroke="#9bb7c7"/><text x="394" y="110" font-family="Malgun Gothic,sans-serif" font-size="18" fill="#17394d">NOA 공통 Agent</text><text x="394" y="136" font-family="Malgun Gothic,sans-serif" font-size="14" fill="#466577">목표·계획·검증·재계획</text><text x="394" y="156" font-family="Malgun Gothic,sans-serif" font-size="14" fill="#466577"></text><rect x="735" y="80" width="300" height="94" rx="10" fill="white" stroke="#9bb7c7"/><text x="749" y="110" font-family="Malgun Gothic,sans-serif" font-size="18" fill="#17394d">처별 업무 Skill</text><text x="749" y="136" font-family="Malgun Gothic,sans-serif" font-size="14" fill="#466577">안전미흡의 실제 해소와 재발방지</text><text x="749" y="156" font-family="Malgun Gothic,sans-serif" font-size="14" fill="#466577"></text><rect x="25" y="300" width="300" height="94" rx="10" fill="white" stroke="#9bb7c7"/><text x="39" y="330" font-family="Malgun Gothic,sans-serif" font-size="18" fill="#17394d">aRDa 근거 계층</text><text x="39" y="356" font-family="Malgun Gothic,sans-serif" font-size="14" fill="#466577">권한·판본·출처·정정이력</text><text x="39" y="376" font-family="Malgun Gothic,sans-serif" font-size="14" fill="#466577"></text><rect x="380" y="300" width="300" height="94" rx="10" fill="white" stroke="#9bb7c7"/><text x="394" y="330" font-family="Malgun Gothic,sans-serif" font-size="18" fill="#17394d">승인·실행·대사 계층</text><text x="394" y="356" font-family="Malgun Gothic,sans-serif" font-size="14" fill="#466577">사람의 승인·멱등·결과 미확인</text><text x="394" y="376" font-family="Malgun Gothic,sans-serif" font-size="14" fill="#466577"></text><rect x="735" y="300" width="300" height="94" rx="10" fill="white" stroke="#9bb7c7"/><text x="749" y="330" font-family="Malgun Gothic,sans-serif" font-size="18" fill="#17394d">기존 공식 업무시스템</text><text x="749" y="356" font-family="Malgun Gothic,sans-serif" font-size="14" fill="#466577">안전점검·COSAS 관련 기록; 시스</text><text x="749" y="376" font-family="Malgun Gothic,sans-serif" font-size="14" fill="#466577">템 운영은 데이터융복합처 협의</text></svg>